<!-- https://www.svgrepo.com/show/45139/asteroid.svg --><svg xmlns="http://www.w3.org/2000/svg" xml:space="preserve" viewBox="0 0 40 40"><path d="M13.167 38.5c-6.459 0-11.714-5.255-11.714-11.714 0-4.019 2.033-7.712 5.439-9.88l.413-.263L25.669 6.322l-4.192 7.336 15.83-10.916-10.546 17.333 6.895-2.955c-2.735 4.118-10.591 15.942-10.921 16.409l-.121.162c-2.209 3.013-5.739 4.809-9.447 4.809" style="fill:#f78f8f"/><path d="M35.662 4.483 27.146 18.48l-1.625 2.67 2.873-1.231 3.918-1.679c-4.089 6.155-9.712 14.614-9.969 14.978l-.136.182a11.26 11.26 0 0 1-9.041 4.6C6.983 38 1.952 32.969 1.952 26.786c0-3.847 1.947-7.382 5.208-9.458l.279-.186.396-.224 16.503-9.274-2.206 3.861-2.178 3.811 3.614-2.492zM38.952 1 23 12l4-7L7.345 16.046l-.74.419.018.02C3.218 18.653.952 22.451.952 26.787.952 33.531 6.421 39 13.167 39c4.047 0 7.625-1.977 9.847-5.009l.13-.174C23.55 33.242 35 16 35 16l-7 3z" style="fill:#c74343"/><path d="M13 34.5c-4.136 0-7.5-3.364-7.5-7.5 0-1.964.758-3.823 2.133-5.233l.054-.055.035-.069c.016-.031.089-.146.377-.323a8.4 8.4 0 0 1 1.1-.777l8.844-6.254-1.95 5.851 10.819-6.606-6.938 11.064 5.767-.896-6.506 7.603a8 8 0 0 1-.389.488l-.121.132a.5.5 0 0 1-.131.097l-.069.038-.055.058A7.42 7.42 0 0 1 13 34.5" style="fill:#ffeea3"/><path d="m25.361 15.066-5.228 8.337-1.164 1.856 2.164-.336 3.35-.52-5.628 6.577-.022.026-.021.028a8 8 0 0 1-.246.315l-.215.236-.139.077-.108.116A6.93 6.93 0 0 1 13 34c-3.86 0-7-3.14-7-7a6.96 6.96 0 0 1 1.991-4.884l.083-.07.069-.137c.002-.002.05-.059.218-.163l.064-.039.057-.049c.288-.244.615-.474.97-.684l.036-.021.034-.024 7.563-5.35-1.035 3.105-.865 2.595 2.335-1.426zM28.464 12 17 19l2-6-10.055 7.112q-.588.345-1.108.782c-.3.185-.478.357-.562.524A7.97 7.97 0 0 0 5 27a8 8 0 0 0 8 8 7.97 7.97 0 0 0 5.835-2.539 1 1 0 0 0 .261-.199l.008.01.12-.15q.206-.237.392-.491L27 23l-6.02.935z" style="fill:#c74343"/><circle cx="12.5" cy="27.5" r="3" style="fill:#fff"/><path d="M12.5 25a2.5 2.5 0 1 1 0 5 2.5 2.5 0 0 1 0-5m0-1C10.57 24 9 25.57 9 27.5s1.57 3.5 3.5 3.5 3.5-1.57 3.5-3.5-1.57-3.5-3.5-3.5" style="fill:#f5c276"/></svg>