<svg xmlns="http://www.w3.org/2000/svg" xml:space="preserve" width="800" height="800" viewBox="0 0 271.909 271.909"><path d="M253.664 80.654c-4.328-3.737-10.816-3.478-14.829.598l-15.295 15.52c-3.415-3.454-7.05-7.125-10.768-10.885l33.812-34.512c4.43-4.523 4.118-11.831-.682-15.961-4.388-3.776-10.96-3.511-15.03.604l-33.712 34.09-11.309-11.432 15.168-15.535a10.859 10.859 0 0 0-15.502-15.207l-15.009 15.231-5.07-5.127c2.202 2.205-140.174 143.358-140.907 145.565-.733 2.205 2.935 50.728 2.935 50.728l35.227 30.877 44.033-8.822 111.552-109.543 27.522-27.57-6.914-6.989 15.451-15.826c4.37-4.477 4.064-11.713-.673-15.804" style="fill:#fede94"/><path d="M147.392 63.933C131.344 80.156 24.733 182.988 24.529 183.602c-.733 2.205 2.935 50.728 2.935 50.728l35.227 30.877 44.033-8.822 14.429-14.168c-101.1 1.556-8.738-132.279 26.239-178.284" style="fill:#f2ce75"/><path d="M91.212 193.96c6.728 6.848 6.728 17.992 0 24.84s-17.691 6.848-24.45 0c-6.728-6.848-6.728-17.992 0-24.84 6.759-6.817 17.722-6.817 24.45 0" class="currentColor"/><path d="M253.379 108.507c-3.004-3.094-7.9-3.064-10.903.03L113.77 241.718c-.601.601-1.201 1.201-1.832 1.772-19.283 17.661-49.139 17.091-67.732-1.772-19.163-19.494-19.163-51.182 0-70.646l129.967-132.01c3.004-3.034 3.004-7.99 0-11.023-3.004-3.064-7.87-3.064-10.843 0L33.362 160.02c-25.17 25.561-25.17 67.161 0 92.722s66.086 25.555 91.256-.006l.054-.054 128.766-133.211c2.944-3.065 2.944-7.961-.059-10.964" style="fill:#2d213f"/><path d="M152.883 102.926c3.004 3.034 7.87 3.034 10.843 0l88.247-89.628c3.004-3.034 3.004-7.96 0-11.023a7.63 7.63 0 0 0-10.873 0l-88.217 89.628c-3.004 3.033-3.004 7.959 0 11.023M211.088 86.941 163.12 135.63c-2.974 3.064-2.974 7.99 0 11.053a7.63 7.63 0 0 0 10.873 0l47.968-48.719c3.004-3.064 3.004-7.99 0-11.023a7.58 7.58 0 0 0-10.873 0M102.086 182.938c12.705 12.946 12.705 33.971 0 46.887-12.735 12.916-33.46 12.916-46.166 0-12.735-12.916-12.735-33.941 0-46.887 12.705-12.917 33.43-12.917 46.166 0M91.212 218.8c6.728-6.848 6.728-17.992 0-24.84-6.728-6.818-17.691-6.818-24.45 0-6.728 6.848-6.728 17.992 0 24.84 6.759 6.849 17.722 6.849 24.45 0" style="fill:#2d213f"/></svg>